<?xml version="1.0" encoding="UTF-8" standalone="no"?>
<svg
   id="Layer_1"
   version="1.1"
   viewBox="0 0 499.99999 499.99999"
   sodipodi:docname="icon_transparent.svg"
   inkscape:version="1.4.3 (0d15f75, 2025-12-25)"
   inkscape:export-filename="..\png\huira_color_icon.png"
   inkscape:export-xdpi="96"
   inkscape:export-ydpi="96"
   width="500"
   height="500"
   xmlns:inkscape="http://www.inkscape.org/namespaces/inkscape"
   xmlns:sodipodi="http://sodipodi.sourceforge.net/DTD/sodipodi-0.dtd"
   xmlns="http://www.w3.org/2000/svg"
   xmlns:svg="http://www.w3.org/2000/svg">
  <sodipodi:namedview
     id="namedview18"
     pagecolor="#ffffff"
     bordercolor="#000000"
     borderopacity="0.25"
     inkscape:showpageshadow="2"
     inkscape:pageopacity="0.0"
     inkscape:pagecheckerboard="0"
     inkscape:deskcolor="#d1d1d1"
     inkscape:zoom="1.4142136"
     inkscape:cx="188.44395"
     inkscape:cy="265.87214"
     inkscape:window-width="2095"
     inkscape:window-height="1360"
     inkscape:window-x="1674"
     inkscape:window-y="0"
     inkscape:window-maximized="0"
     inkscape:current-layer="Layer_1"
     inkscape:export-bgcolor="#ffffff00" />
  <!-- Generator: Adobe Illustrator 30.1.0, SVG Export Plug-In . SVG Version: 2.1.1 Build 136)  -->
  <defs
     id="defs1">
    <style
       id="style1">
      .st0 {
        fill: #f15a24;
      }
    </style>
  </defs>
  <g
     id="g14"
     style="fill:#0a2360;fill-opacity:1"
     transform="matrix(2.6114133,-0.1645677,0.15940727,2.6959517,3.2130824,37.379978)">
    <g
       id="g13"
       style="fill:#0a2360;fill-opacity:1">
      <polygon
         points="83.62,60.81 64.95,74.56 61.37,69.69 61.35,64.91 75.49,54.5 80.04,55.93 "
         id="polygon10"
         style="fill:#0a2360;fill-opacity:1" />
      <polygon
         points="59.28,31.32 44.03,42.55 49.57,50.08 48.41,50.93 52.92,57.04 54.08,56.19 59.62,63.72 74.86,52.49 69.32,44.97 70.48,44.11 65.98,38 64.82,38.85 "
         id="polygon11"
         style="fill:#0a2360;fill-opacity:1" />
      <polygon
         points="52.23,27.7 47.5,26.97 43.37,30.02 42.66,34.75 45.66,38.83 55.24,31.78 "
         id="polygon12"
         style="fill:#0a2360;fill-opacity:1" />
      <rect
         x="65.589996"
         y="13.55"
         width="52.380001"
         height="20.32"
         transform="rotate(-36.37,91.774875,23.705572)"
         id="rect12"
         style="fill:#0a2360;fill-opacity:1" />
      <rect
         x="0.92000002"
         y="61.169998"
         width="52.380001"
         height="20.32"
         transform="rotate(-36.37,27.112383,71.317978)"
         id="rect13"
         style="fill:#0a2360;fill-opacity:1" />
    </g>
    <circle
       cx="78.860001"
       cy="72.470001"
       r="2.1099999"
       id="circle13"
       style="fill:#0a2360;fill-opacity:1" />
  </g>
  <g
     id="g3"
     transform="matrix(1.6033273,0,0,1.6862274,9.773483,-245.62793)"
     style="fill:#0a2360;fill-opacity:1">
    <path
       id="polygon5"
       inkscape:label="polygon5"
       d="m 119.29512,370.02817 -3.20248,0.73986 -0.0809,0.0157 -0.76304,0.17316 -0.20811,0.0472 -0.0347,-0.0158 -0.16186,-0.0787 -44.129445,-20.07069 -0.832413,-0.3778 -0.04625,0.0315 -0.739922,0.45651 -2.820955,1.76307 -60.1649586,37.37083 63.4830486,-41.21181 0.208104,-0.14167 0.231225,0.11019 45.146846,19.8503 42.5918,-10.29508 42.31432,-10.09044 0.5087,-0.12593 0.15029,-0.0472 0.16186,0.0315 0.47402,0.0787 51.92611,9.69759 2.83595,0.60245 0.0615,1.56908 -0.0207,-0.0312 -0.1383,-0.0323 -0.28033,0.3154 -0.27747,-0.063 -2.69378,-0.45651 -48.39557,-8.16995 -3.09842,-0.51948 -0.5087,-0.0787 -0.42777,0.0945 -2.64753,0.61393 -39.60899,9.27187 z"
       style="fill:#0a2360;fill-opacity:1;stroke-width:1.34905"
       sodipodi:nodetypes="cccccccccccccccccccccccccccccccccccccc" />
    <path
       d="m 232.72295,383.86514 -1.74576,-1.98346 -26.57941,-30.20835 -2.87876,-3.27428 -0.13873,-0.15741 -0.64665,-0.0528 -0.64822,0.11579 -0.1503,0.22039 -2.21976,3.25853 -20.79877,30.55467 -0.17342,0.25187 -2.46255,1.84178 -42.40156,23.8044 -0.47401,-0.0945 h -0.0462 L 93.825645,406.5332 h -0.104051 -0.104052 l -0.462452,0.0472 -22.440465,-55.72567 -0.589626,-1.44824 -0.17342,-0.44077 -0.300593,0.2991 -3.375897,3.46317 -28.648879,29.31108 -31.9669699,32.90018 -1.9307356,1.9992 2.4278711,-0.20464 87.4496054,-7.46158 41.065709,7.8866 0.34684,0.063 0.30059,-0.22038 42.07154,-31.42047 0.57806,-0.42502 0.1503,-0.12594 0.12717,-0.17316 0.69368,-1.00746 21.94333,-32.06588 28.63732,32.39645 1.74575,1.96772 31.45828,35.59201 0.47401,0.53522 0.5665,-0.28335 z M 8.4801451,414.49851 38.331398,383.29844 l 30.764596,-32.34923 0.566503,-0.58244 0.08093,-0.0944 0.03468,0.0787 0.03468,0.0787 0.02312,0.063 23.296002,56.07199 z"
       id="path6"
       style="fill:#0a2360;fill-opacity:1;stroke-width:1.34905"
       sodipodi:nodetypes="cccccccccccccccccccccccccccccccccccccccccccccccccccccc" />
    <path
       d="m 256.14612,360.15811 -0.46332,-0.19169 0.0818,0.39634 -23.04165,23.50238 -0.92491,0.9445 -0.53182,1.3223 -11.87183,16.71077 -7.87653,11.74727 -0.68211,1.66862 -1.02896,-1.25934 -32.41618,-29.43402 -0.40465,-0.48799 -2.70534,-0.64541 -58.17642,-13.63233 c 6.02344,14.4509 12.08155,28.85457 18.04718,43.33694 0.21966,0.53522 0.43933,1.0547 0.65899,1.58992 -0.23122,-0.53522 -0.47401,-1.0547 -0.70524,-1.58992 -6.41651,-14.3407 -12.72898,-28.76011 -19.09925,-43.14804 -0.11561,-0.26761 -0.23123,-0.51947 -0.34684,-0.78708 l -0.57806,-1.29082 1.10988,0.23612 4.10426,0.88154 57.62147,12.31002 0.67056,0.14168 0.28903,0.063 0.2081,0.25187 0.85554,1.03895 30.44342,22.72629 6.19187,-6.50995 13.94536,-15.88576 0.43933,-1.08618 0.11561,-0.29909 0.19654,-0.1889 0.70524,-0.70838 21.81616,-22.0384 1.86996,-1.53605 1.52215,0.23904 c 37.06608,12.7715 49.33926,14.35503 -0.0393,1.61184 z"
       id="path7"
       style="fill:#0a2360;fill-opacity:1;stroke-width:1.34905"
       sodipodi:nodetypes="ccccccccccccccccccccccccccccccccccccccc" />
    <path
       d="M 134.93893,414.71831 93.599758,406.9752 h -0.106796 c 0,0 -0.106797,0 -0.106797,0 l -0.47461,0.0481 -23.030812,-56.75072 45.290367,20.43987 0.16611,0.0802 c 6.53786,14.65259 13.01639,29.33723 19.60171,43.94172 z"
       id="path14"
       style="fill:#0a2360;fill-opacity:1;stroke-width:1.37919" />
    <polygon
       points="196.69,188.05 146.85,180.23 180.42,174.53 214.68,168.64 "
       id="polygon14"
       style="fill:#0a2360;fill-opacity:1"
       transform="matrix(1.1714951,0,0,1.6041649,-53.260079,80.966075)" />
    <polygon
       points="146.85,180.23 180.42,174.53 214.68,168.64 196.69,188.05 "
       id="polygon14-4"
       style="fill:#0a2360;fill-opacity:1"
       transform="matrix(0.65321991,0.39484676,-0.51859998,1.5404811,200.40436,15.239004)" />
  </g>
  <path
     class="st0"
     d="M 330.13941,341.84636 482.60444,67.367416 482.30681,67.225995 319.70139,327.45955 235.06556,222.47301 l -13.09243,11.24211 92.01279,112.29327 c 6.79348,-1.69217 9.34138,-2.42429 16.15349,-4.16203 z"
     id="path18"
     style="fill:#ea0a2a;fill-opacity:1;stroke-width:0.935375;stroke-dasharray:none"
     sodipodi:nodetypes="cccccccc"
     inkscape:label="path18" />
</svg>
