<?xml version="1.0" encoding="UTF-8" standalone="no"?>
<svg
   id="Layer_1"
   version="1.1"
   viewBox="0 0 474.6 99.999995"
   sodipodi:docname="wide_white_on_blue.svg"
   inkscape:version="1.4.3 (0d15f75, 2025-12-25)"
   xml:space="preserve"
   width="474.60001"
   height="100"
   inkscape:export-filename="..\png\huira_long.png"
   inkscape:export-xdpi="96"
   inkscape:export-ydpi="96"
   xmlns:inkscape="http://www.inkscape.org/namespaces/inkscape"
   xmlns:sodipodi="http://sodipodi.sourceforge.net/DTD/sodipodi-0.dtd"
   xmlns="http://www.w3.org/2000/svg"
   xmlns:svg="http://www.w3.org/2000/svg"><sodipodi:namedview
     id="namedview18"
     pagecolor="#ffffff"
     bordercolor="#000000"
     borderopacity="0.25"
     inkscape:showpageshadow="2"
     inkscape:pageopacity="0.0"
     inkscape:pagecheckerboard="0"
     inkscape:deskcolor="#d1d1d1"
     inkscape:zoom="1.5498967"
     inkscape:cx="276.79264"
     inkscape:cy="110.65254"
     inkscape:window-width="1902"
     inkscape:window-height="1153"
     inkscape:window-x="2582"
     inkscape:window-y="82"
     inkscape:window-maximized="0"
     inkscape:current-layer="g5" /><!-- Generator: Adobe Illustrator 30.1.0, SVG Export Plug-In . SVG Version: 2.1.1 Build 136)  --><defs
     id="defs1"><style
       id="style1">
      .st0 {
        fill: #f15a24;
      }
    </style></defs><g
     id="g5"
     style="fill:#0a2360;fill-opacity:1"
     transform="matrix(0.90370591,0,0,0.90370591,88.458121,-27.074649)"><path
       id="rect1"
       style="fill:#0a2360;fill-opacity:1;stroke-width:0.580593"
       inkscape:label="rect1"
       d="M -116.07263,4.1456026 H 445.476 V 166.42902 h -561.54863 z" /><path
       d="M 42.057658,113.48128 V 56.024962 c 0,-5.681188 -0.644427,-7.394023 -2.255515,-8.462426 l 0.101747,-0.322217 h 17.90846 l 0.101748,0.322217 c -1.611078,1.068403 -2.255515,2.781238 -2.255515,8.462426 V 78.207034 H 76.772257 V 56.024962 c 0,-5.681188 -0.64445,-7.394023 -2.255525,-8.462426 l 0.101747,-0.322217 h 17.908458 l 0.10175,0.322217 c -1.61108,1.068403 -2.25553,2.781238 -2.25553,8.462426 v 57.456318 c 0,5.68119 0.64445,7.49577 2.25553,8.58113 l -0.10175,0.22047 H 74.618479 l -0.101747,-0.22047 c 1.611075,-1.0684 2.255525,-2.89994 2.255525,-8.58113 V 90.332557 H 55.658583 v 23.148723 c 0,5.68119 0.644437,7.39401 2.255515,8.46242 l -0.101748,0.32222 H 39.90389 l -0.101747,-0.32222 c 1.611088,-1.06841 2.255515,-2.78123 2.255515,-8.46242 z"
       id="path1"
       style="fill:#ffffff;fill-opacity:1;stroke-width:1.69587" /><path
       d="M 124.6954,100.61804 V 56.033435 c 0,-5.681188 -0.64443,-7.394023 -2.25552,-8.462427 l 0.10174,-0.322218 h 18.33243 l 0.10175,0.322218 c -1.71283,1.068404 -2.35726,2.781239 -2.35726,8.462427 v 44.923775 c 0,7.49578 3.22216,10.93841 10.17525,10.93841 6.9531,0 10.29399,-3.42567 10.29399,-10.93841 V 56.033435 c 0,-5.681188 -0.64443,-7.394023 -2.25553,-8.462427 L 156.934,47.24879 h 17.14531 l 0.10175,0.322218 c -1.61108,1.068404 -2.25551,2.781239 -2.25551,8.462427 v 44.584605 c 0,15.11026 -8.14021,22.72475 -23.14873,22.72475 -15.00851,0 -24.11536,-7.49578 -24.11536,-22.72475 z"
       id="path2"
       style="fill:#ffffff;fill-opacity:1;stroke-width:1.69587" /><path
       d="M 206.34953,113.48976 V 56.033433 c 0,-5.681188 -0.64446,-7.394023 -2.35728,-8.462426 l 0.10174,-0.322217 h 18.01023 l 0.10175,0.322217 c -1.61108,1.068403 -2.25551,2.781238 -2.25551,8.462426 v 57.456327 c 0,5.68119 0.64443,7.39404 2.25551,8.46243 l -0.10175,0.32222 h -18.01023 l -0.10174,-0.32222 c 1.71282,-1.06839 2.35728,-2.78124 2.35728,-8.46243 z"
       id="path3"
       style="fill:#ffffff;fill-opacity:1;stroke-width:1.69587" /><path
       d="M 254.27265,113.48127 V 56.024962 c 0,-5.681188 -0.64443,-7.394024 -2.25551,-8.462426 l 0.10175,-0.322217 h 23.36917 c 17.78974,0 26.37089,7.292271 26.37089,21.537635 0,9.649542 -4.39233,16.076915 -12.97346,18.976863 v 0.220472 c 6.54608,2.255508 9.32732,6.86829 9.97176,13.295661 l 1.71282,14.04187 c 0.5427,4.49408 1.18712,5.90166 2.45903,6.74959 l -0.10174,0.22047 h -15.7547 l -1.8146,-18.97686 c -0.64443,-6.970061 -3.96835,-9.649547 -9.32732,-9.649547 h -8.14021 v 19.824797 c 0,5.68119 0.64443,7.39403 2.25552,8.46243 l -0.10176,0.32222 h -17.90845 l -0.10175,-0.32222 c 1.61108,-1.0684 2.25553,-2.78124 2.25553,-8.46243 z m 21.31718,-30.763207 c 8.58114,0 12.43078,-4.171855 12.43078,-12.549487 0,-8.377632 -3.96836,-11.905057 -12.753,-11.905057 h -7.39403 v 24.437586 h 7.71625 z"
       id="path4"
       style="fill:#ffffff;fill-opacity:1;stroke-width:1.69587" /><path
       d="m 335.80808,115.42306 14.90675,-61.322925 c 0.96664,-4.392321 0.64442,-5.78294 -0.64443,-6.546085 l 0.10174,-0.322216 h 22.623 l 0.10175,0.322216 c -1.18712,0.746186 -1.61109,2.136805 -0.54269,6.546085 l 15.00851,61.322925 c 1.06841,4.39232 1.71284,5.78294 2.89995,6.54608 l -0.10175,0.32222 h -16.72135 l -0.10175,-0.32222 c 1.28887,-0.74619 1.61108,-2.1368 0.64444,-6.54608 l -1.93331,-8.6829 h -21.43588 l -1.81459,8.6829 c -0.96664,4.39232 -0.64443,5.78294 0.64444,6.54608 l -0.10174,0.32222 h -16.39913 l -0.10175,-0.32222 c 1.28887,-0.74619 1.9333,-2.1368 3.00171,-6.54608 z m 33.88361,-20.147023 -8.46242,-39.022138 -8.36069,39.022138 z"
       id="path5"
       style="fill:#ffffff;fill-opacity:1;stroke-width:1.69587" /><g
       id="g14"
       style="fill:#ffffff;fill-opacity:1"
       transform="matrix(0.59295865,-0.03736744,0.03619569,0.61215429,-93.18558,38.574983)"><g
         id="g13"
         style="fill:#ffffff;fill-opacity:1"><polygon
           points="61.35,64.91 75.49,54.5 80.04,55.93 83.62,60.81 64.95,74.56 61.37,69.69 "
           id="polygon10"
           style="fill:#ffffff;fill-opacity:1" /><polygon
           points="48.41,50.93 52.92,57.04 54.08,56.19 59.62,63.72 74.86,52.49 69.32,44.97 70.48,44.11 65.98,38 64.82,38.85 59.28,31.32 44.03,42.55 49.57,50.08 "
           id="polygon11"
           style="fill:#ffffff;fill-opacity:1" /><polygon
           points="42.66,34.75 45.66,38.83 55.24,31.78 52.23,27.7 47.5,26.97 43.37,30.02 "
           id="polygon12"
           style="fill:#ffffff;fill-opacity:1" /><rect
           x="65.589996"
           y="13.55"
           width="52.380001"
           height="20.32"
           transform="rotate(-36.37,91.774875,23.705572)"
           id="rect12"
           style="fill:#ffffff;fill-opacity:1" /><rect
           x="0.92000002"
           y="61.169998"
           width="52.380001"
           height="20.32"
           transform="rotate(-36.37,27.112383,71.317978)"
           id="rect13"
           style="fill:#ffffff;fill-opacity:1" /></g><circle
         cx="78.860001"
         cy="72.470001"
         r="2.1099999"
         id="circle13"
         style="fill:#ffffff;fill-opacity:1" /></g><g
       id="g3"
       transform="matrix(0.36405835,0,0,0.38288199,-91.695947,-25.686)"
       style="fill:#ffffff;fill-opacity:1"><path
         id="polygon5"
         inkscape:label="polygon5"
         d="m 119.29512,370.02817 -3.20248,0.73986 -0.0809,0.0157 -0.76304,0.17316 -0.20811,0.0472 -0.0347,-0.0158 -0.16186,-0.0787 -44.129445,-20.07069 -0.832413,-0.3778 -0.04625,0.0315 -0.739922,0.45651 -2.820955,1.76307 -60.1649586,37.37083 63.4830486,-41.21181 0.208104,-0.14167 0.231225,0.11019 45.146846,19.8503 42.5918,-10.29508 42.31432,-10.09044 0.5087,-0.12593 0.15029,-0.0472 0.16186,0.0315 0.47402,0.0787 51.92611,9.69759 2.83595,0.60245 0.0615,1.56908 -0.0207,-0.0312 -0.1383,-0.0323 -0.28033,0.3154 -0.27747,-0.063 -2.69378,-0.45651 -48.39557,-8.16995 -3.09842,-0.51948 -0.5087,-0.0787 -0.42777,0.0945 -2.64753,0.61393 -39.60899,9.27187 z"
         style="fill:#ffffff;fill-opacity:1;stroke-width:1.34905"
         sodipodi:nodetypes="cccccccccccccccccccccccccccccccccccccc" /><path
         d="m 232.72295,383.86514 -1.74576,-1.98346 -26.57941,-30.20835 -2.87876,-3.27428 -0.13873,-0.15741 -0.64665,-0.0528 -0.64822,0.11579 -0.1503,0.22039 -2.21976,3.25853 -20.79877,30.55467 -0.17342,0.25187 -2.46255,1.84178 -42.40156,23.8044 -0.47401,-0.0945 h -0.0462 L 93.825645,406.5332 h -0.104051 -0.104052 l -0.462452,0.0472 -22.440465,-55.72567 -0.589626,-1.44824 -0.17342,-0.44077 -0.300593,0.2991 -3.375897,3.46317 -28.648879,29.31108 -31.9669699,32.90018 -1.9307356,1.9992 2.4278711,-0.20464 87.4496054,-7.46158 41.065709,7.8866 0.34684,0.063 0.30059,-0.22038 42.07154,-31.42047 0.57806,-0.42502 0.1503,-0.12594 0.12717,-0.17316 0.69368,-1.00746 21.94333,-32.06588 28.63732,32.39645 1.74575,1.96772 31.45828,35.59201 0.47401,0.53522 0.5665,-0.28335 z M 8.4801451,414.49851 38.331398,383.29844 l 30.764596,-32.34923 0.566503,-0.58244 0.08093,-0.0944 0.03468,0.0787 0.03468,0.0787 0.02312,0.063 23.296002,56.07199 z"
         id="path6"
         style="fill:#ffffff;fill-opacity:1;stroke-width:1.34905"
         sodipodi:nodetypes="cccccccccccccccccccccccccccccccccccccccccccccccccccccc" /><path
         d="m 256.14612,360.15811 -0.46332,-0.19169 0.0818,0.39634 -23.04165,23.50238 -0.92491,0.9445 -0.53182,1.3223 -11.87183,16.71077 -7.87653,11.74727 -0.68211,1.66862 -1.02896,-1.25934 -32.41618,-29.43402 -0.40465,-0.48799 -2.70534,-0.64541 -58.17642,-13.63233 c 6.02344,14.4509 12.08155,28.85457 18.04718,43.33694 0.21966,0.53522 0.43933,1.0547 0.65899,1.58992 -0.23122,-0.53522 -0.47401,-1.0547 -0.70524,-1.58992 -6.41651,-14.3407 -12.72898,-28.76011 -19.09925,-43.14804 -0.11561,-0.26761 -0.23123,-0.51947 -0.34684,-0.78708 l -0.57806,-1.29082 1.10988,0.23612 4.10426,0.88154 57.62147,12.31002 0.67056,0.14168 0.28903,0.063 0.2081,0.25187 0.85554,1.03895 30.44342,22.72629 6.19187,-6.50995 13.94536,-15.88576 0.43933,-1.08618 0.11561,-0.29909 0.19654,-0.1889 0.70524,-0.70838 21.81616,-22.0384 1.86996,-1.53605 1.52215,0.23904 c 37.06608,12.7715 49.33926,14.35503 -0.0393,1.61184 z"
         id="path7"
         style="fill:#ffffff;fill-opacity:1;stroke-width:1.34905"
         sodipodi:nodetypes="ccccccccccccccccccccccccccccccccccccccc" /><path
         d="M 134.93893,414.71831 93.599758,406.9752 h -0.106796 c 0,0 -0.106797,0 -0.106797,0 l -0.47461,0.0481 -23.030812,-56.75072 45.290367,20.43987 0.16611,0.0802 c 6.53786,14.65259 13.01639,29.33723 19.60171,43.94172 z"
         id="path14"
         style="fill:#ffffff;fill-opacity:1;stroke-width:1.37919" /><polygon
         points="214.68,168.64 196.69,188.05 146.85,180.23 180.42,174.53 "
         id="polygon14"
         style="fill:#ffffff;fill-opacity:1"
         transform="matrix(1.1714951,0,0,1.6041649,-53.260079,80.966075)" /><polygon
         points="196.69,188.05 146.85,180.23 180.42,174.53 214.68,168.64 "
         id="polygon14-4"
         style="fill:#ffffff;fill-opacity:1"
         transform="matrix(0.65321991,0.39484676,-0.51859998,1.5404811,200.40436,15.239004)" /></g><path
       class="st0"
       d="m -18.952295,107.70841 34.619358,-62.324351 -0.06755,-0.03211 -36.921882,59.089731 -19.21777,-23.838686 -2.972828,2.552682 20.892815,25.497784 c 1.542558,-0.38423 2.121099,-0.55047 3.667885,-0.94505 z"
       id="path18"
       style="fill:#ea0a2a;fill-opacity:1;stroke-width:0.212389;stroke-dasharray:none"
       sodipodi:nodetypes="cccccccc"
       inkscape:label="path18" /></g></svg>
